<?xml version="1.0" encoding="UTF-8"?>
<svg width="19px" height="19px" viewBox="0 0 19 19" version="1.1" xmlns="http://www.w3.org/2000/svg" xmlns:xlink="http://www.w3.org/1999/xlink">
    <!-- Generator: Sketch 52.4 (67378) - http://www.bohemiancoding.com/sketch -->
    <title>icons/like copy 2</title>
    <desc>Created with Sketch.</desc>
    <g id="Page-1" stroke="none" stroke-width="1" fill="none" fill-rule="evenodd">
        <g id="city-large-copy" transform="translate(-216.000000, -16.000000)" fill="#FFFFFF">
            <g id="icons/like-copy-2" transform="translate(216.000000, 16.000000)">
                <g id="icons/dislike">
                    <path d="M11.6763636,2.66 L5.14727273,2.66 C4.56690909,2.66 4.05909091,3.02272727 3.84145455,3.53054545 L1.66509091,8.68127273 C1.59254545,8.82636364 1.52,8.97145455 1.52,9.18909091 L1.52,10.5674545 L1.52,10.64 C1.52,11.438 2.17290909,12.0909091 2.97090909,12.0909091 L7.54127273,12.0909091 L6.81581818,15.428 C6.81581818,15.5005455 6.81581818,15.5731194 6.81581818,15.6456364 C6.81581818,15.9358182 6.96090909,16.2259716 7.106,16.4436364 L7.904,17.1690909 L12.692,12.3810909 C12.9821818,12.0909091 13.1272727,11.7281818 13.1272727,11.3654545 L13.1272727,4.11090909 C13.1272727,3.31290909 12.4743636,2.66 11.6763636,2.66 Z M14.5781818,2.66 L14.5781818,11.3654545 L17.48,11.3654545 L17.48,2.66 L14.5781818,2.66 Z" id="Shape"></path>
                </g>
            </g>
        </g>
    </g>
</svg>