<?xml version="1.0" encoding="UTF-8"?>
<svg width="19px" height="19px" viewBox="0 0 19 19" version="1.1" xmlns="http://www.w3.org/2000/svg" xmlns:xlink="http://www.w3.org/1999/xlink">
    <!-- Generator: Sketch 52.4 (67378) - http://www.bohemiancoding.com/sketch -->
    <title>icons/like 2</title>
    <desc>Created with Sketch.</desc>
    <g id="Page-1" stroke="none" stroke-width="1" fill="none" fill-rule="evenodd">
        <g id="city-large-copy-2" transform="translate(-246.000000, -16.000000)" fill="#FFFFFF">
            <g id="icons/like-2" transform="translate(246.000000, 16.000000)">
                <g id="icons/like">
                    <path d="M12.024625,2.299 L5.5159375,2.299 C4.9373875,2.299 4.43115625,2.6581 4.2142,3.16084 L2.0446375,8.26006 C1.97231875,8.4037 1.9,8.54734 1.9,8.7628 L1.9,10.12738 L1.9,10.1992 C1.9,10.98922 2.55086875,11.6356 3.346375,11.6356 L7.90245625,11.6356 L7.17926875,14.93932 C7.17926875,15.01114 7.17926875,15.0829882 7.17926875,15.15478 C7.17926875,15.44206 7.32390625,15.7293118 7.46854375,15.9448 L8.26405,16.663 L13.0370875,11.92288 C13.3263625,11.6356 13.471,11.2765 13.471,10.9174 L13.471,3.7354 C13.471,2.94538 12.8201312,2.299 12.024625,2.299 Z M15.067,1.9 L15.067,10.678 L17.86,10.678 L17.86,1.9 L15.067,1.9 Z" id="Shape" transform="translate(9.880000, 9.281500) scale(-1, -1) translate(-9.880000, -9.281500) "></path>
                </g>
            </g>
        </g>
    </g>
</svg>