<?xml version="1.0" encoding="UTF-8"?>
<svg width="14px" height="14px" viewBox="0 0 14 14" version="1.1" xmlns="http://www.w3.org/2000/svg" xmlns:xlink="http://www.w3.org/1999/xlink">
    <!-- Generator: Sketch 52.4 (67378) - http://www.bohemiancoding.com/sketch -->
    <title>Group 6</title>
    <desc>Created with Sketch.</desc>
    <g id="Page-1" stroke="none" stroke-width="1" fill="none" fill-rule="evenodd">
        <g id="2.-Refined-preferences-Copy-2" transform="translate(-601.000000, -134.000000)" fill="#FFFFFF" fill-rule="nonzero">
            <g id="Group-6" transform="translate(586.000000, 119.000000)">
                <g id="Group-8" transform="translate(15.000000, 15.000000)">
                    <g id="icons/info">
                        <path d="M10.045,12.4301652 L9.84532882,13.2610395 C9.24631527,13.5017101 8.76782165,13.6848857 8.41151297,13.8108271 C8.05482007,13.9371597 7.64036468,14 7.16814681,14 C6.44297796,14 5.87892928,13.8191711 5.47664116,13.4599904 C5.07435303,13.0993756 4.87314493,12.6424143 4.87314493,12.0880635 C4.87314493,11.8734677 4.88774565,11.6527443 4.91809976,11.4278489 C4.94871003,11.2026928 4.99737909,10.9491151 5.06397884,10.6656818 L5.81258568,7.96850195 C5.87918543,7.71023081 5.93579522,7.46551858 5.98113429,7.23410452 C6.02711373,7.00412456 6.04927096,6.79252736 6.04927096,6.60205077 C6.04927096,6.25760234 5.97921314,6.01667096 5.83973789,5.88121224 C5.70026264,5.74614465 5.43411978,5.67756786 5.03900393,5.67756786 C4.84548042,5.67756786 4.64657769,5.7091184 4.44383267,5.77013349 C4.24019112,5.83140933 4.06613523,5.89059918 3.92,5.94561706 L4.12018349,5.1140909 C4.61058821,4.91083765 5.07934801,4.73678819 5.52774366,4.59233366 C5.97613931,4.44748801 6.3998162,4.375 6.8005674,4.375 C7.52074128,4.375 8.07646499,4.55217843 8.46671392,4.9065353 C8.85696286,5.26115291 9.05202329,5.72085207 9.05202329,6.28732764 C9.05202329,6.40453397 9.03921565,6.61104658 9.01167921,6.9062136 C8.98478316,7.20203248 8.93470527,7.47308028 8.86170169,7.71961775 L8.11629676,10.4059766 C8.0552043,10.6217457 8.0002595,10.8684136 7.95248698,11.1459801 C7.90317755,11.4217213 7.87961148,11.6324059 7.87961148,11.7737315 C7.87961148,12.1304351 7.95773812,12.3739739 8.11437561,12.5034354 C8.2721658,12.6328969 8.54394402,12.6973018 8.92996644,12.6973018 C9.11119461,12.6973018 9.3173977,12.6645779 9.54652646,12.6003034 C9.77501485,12.536029 9.94164231,12.479577 10.045,12.4301652 Z M10.045,1.7538361 C10.045,2.23704957 9.87489691,2.64973272 9.53305632,2.98905895 C9.1920958,3.32959659 8.78123334,3.5 8.30059467,3.5 C7.81844732,3.5 7.40657908,3.32959659 7.06172115,2.98905895 C6.71749183,2.64959812 6.545,2.23704957 6.545,1.7538361 C6.545,1.27156482 6.71749183,0.858208668 7.06172115,0.514575241 C7.40595047,0.171480214 7.81857305,0 8.30059467,0 C8.78110762,0 9.1920958,0.171884013 9.53305632,0.514575241 C9.87514835,0.858208668 10.045,1.27169942 10.045,1.7538361 Z" id="Shape"></path>
                    </g>
                </g>
            </g>
        </g>
    </g>
</svg>