<?xml version="1.0" encoding="UTF-8"?>
<svg width="144px" height="37px" viewBox="0 0 144 37" version="1.1" xmlns="http://www.w3.org/2000/svg" xmlns:xlink="http://www.w3.org/1999/xlink">
    <!-- Generator: Sketch 52.4 (67378) - http://www.bohemiancoding.com/sketch -->
    <title>logo copy</title>
    <desc>Created with Sketch.</desc>
    <defs>
        <linearGradient x1="100%" y1="-22.5588506%" x2="-29.8787016%" y2="147.276262%" id="linearGradient-1">
            <stop stop-color="#2E71F0" offset="0%"></stop>
            <stop stop-color="#5D25CF" offset="100%"></stop>
        </linearGradient>
    </defs>
    <g id="logo-copy" stroke="none" stroke-width="1" fill="none" fill-rule="evenodd">
        <path d="M46.21,24.86 C48.5100115,24.86 50.3899927,23.9500091 51.85,22.13 L54.85,25.22 C52.4699881,27.9000134 49.6650161,29.24 46.435,29.24 C43.2049838,29.24 40.5450104,28.2200102 38.455,26.18 C36.3649895,24.1399898 35.32,21.5650155 35.32,18.455 C35.32,15.3449844 36.3849893,12.7500104 38.515,10.67 C40.6450106,8.5899896 43.2499846,7.55 46.33,7.55 C49.7700172,7.55 52.6499884,8.8599869 54.97,11.48 L52.06,14.78 C50.5799926,12.9399908 48.740011,12.02 46.54,12.02 C44.7799912,12.02 43.2750062,12.5949942 42.025,13.745 C40.7749937,14.8950057 40.15,16.4449903 40.15,18.395 C40.15,20.3450098 40.7399941,21.9099941 41.92,23.09 C43.1000059,24.2700059 44.5299916,24.86 46.21,24.86 Z M61.0900002,29 L56.5900002,29 L56.5900002,12.86 L61.0900002,12.86 L61.0900002,29 Z M56.9500002,10.82 C56.4499977,10.2999974 56.2000002,9.6700037 56.2000002,8.93 C56.2000002,8.1899963 56.4549977,7.56500255 56.9650002,7.055 C57.4750028,6.54499745 58.0999965,6.29 58.8400002,6.29 C59.5800039,6.29 60.2049977,6.54499745 60.7150002,7.055 C61.2250028,7.56500255 61.4800002,8.1899963 61.4800002,8.93 C61.4800002,9.6700037 61.2250028,10.2949975 60.7150002,10.805 C60.2049977,11.3150025 59.5800039,11.57 58.8400002,11.57 C58.0999965,11.57 57.4700028,11.3200025 56.9500002,10.82 Z M69.2200005,16.1 L69.2200005,23.33 C69.2200005,23.9500031 69.3799989,24.4349982 69.7000005,24.785 C70.0200021,25.1350018 70.3999983,25.31 70.8400005,25.31 C71.6800047,25.31 72.3899976,24.9300038 72.9700005,24.17 L74.6500005,27.32 C73.2499935,28.6000064 71.7750082,29.24 70.2250005,29.24 C68.6749927,29.24 67.3650058,28.7300051 66.2950005,27.71 C65.2249951,26.6899949 64.6900005,25.3000088 64.6900005,23.54 L64.6900005,16.1 L62.8000005,16.1 L62.8000005,12.86 L64.6900005,12.86 L64.6900005,8.03 L69.2200005,8.03 L69.2200005,12.86 L73.1200005,12.86 L73.1200005,16.1 L69.2200005,16.1 Z M78.3400007,35.36 C76.7599928,35.36 75.2700077,34.7200064 73.8700007,33.44 L75.9100007,30.11 C76.6700045,30.8500037 77.4499967,31.22 78.2500007,31.22 C78.6700028,31.22 79.0299992,31.015002 79.3300007,30.605 C79.6300022,30.194998 79.7800007,29.7600023 79.7800007,29.3 C79.7800007,28.8399977 77.7000215,23.3600525 73.5400007,12.86 L78.3400007,12.86 L82.2700007,22.91 L86.2000007,12.86 L91.0000007,12.86 L83.5000007,31.88 C83.0599985,32.9800055 82.3750054,33.8349969 81.4450007,34.445 C80.5149961,35.055003 79.4800064,35.36 78.3400007,35.36 Z M109.210001,14.99 C109.210001,18.3500168 107.880014,20.5199951 105.220001,21.5 L110.530001,29 L104.770001,29 L100.120001,22.31 L96.880001,22.31 L96.880001,29 L92.200001,29 L92.200001,8.03 L100.150001,8.03 C103.410017,8.03 105.734994,8.5799945 107.125001,9.68 C108.515008,10.7800055 109.210001,12.5499878 109.210001,14.99 Z M100.300001,18.26 C101.900009,18.26 102.989998,18.0000026 103.570001,17.48 C104.150004,16.9599974 104.440001,16.1350057 104.440001,15.005 C104.440001,13.8749944 104.140004,13.1000021 103.540001,12.68 C102.939998,12.2599979 101.890008,12.05 100.390001,12.05 L96.880001,12.05 L96.880001,18.26 L100.300001,18.26 Z M126.040001,26.66 C124.219992,28.3800086 122.085013,29.24 119.635001,29.24 C117.184989,29.24 115.160009,28.4850075 113.560001,26.975 C111.959993,25.4649925 111.160001,23.4400127 111.160001,20.9 C111.160001,18.3599873 111.974993,16.3400075 113.605001,14.84 C115.235009,13.3399925 117.15999,12.59 119.380001,12.59 C121.600012,12.59 123.484993,13.2599933 125.035001,14.6 C126.585009,15.9400067 127.360001,17.7799883 127.360001,20.12 L127.360001,22.52 L115.600001,22.52 C115.740002,23.4000044 116.199997,24.1199972 116.980001,24.68 C117.760005,25.2400028 118.639996,25.52 119.620001,25.52 C121.200009,25.52 122.499996,24.9900053 123.520001,23.93 L126.040001,26.66 Z M122.800001,19.31 C122.700001,18.3499952 122.340004,17.6100026 121.720001,17.09 C121.099998,16.5699974 120.345006,16.31 119.455001,16.31 C118.564997,16.31 117.750005,16.5799973 117.010001,17.12 C116.269997,17.6600027 115.840002,18.3899954 115.720001,19.31 L122.800001,19.31 Z M136.840001,25.25 C138.340009,25.25 139.689995,24.5000075 140.890001,23 L143.560001,26 C141.479991,28.1600108 139.230014,29.24 136.810001,29.24 C134.389989,29.24 132.34501,28.4750077 130.675001,26.945 C129.004993,25.4149923 128.170001,23.4150123 128.170001,20.945 C128.170001,18.4749877 129.014993,16.4650078 130.705001,14.915 C132.39501,13.3649923 134.39999,12.59 136.720001,12.59 C137.880007,12.59 139.054995,12.8299976 140.245001,13.31 C141.435007,13.7900024 142.479997,14.4999953 143.380001,15.44 L141.040001,18.5 C140.519999,17.8799969 139.885005,17.4000017 139.135001,17.06 C138.384998,16.7199983 137.640005,16.55 136.900001,16.55 C135.719996,16.55 134.705006,16.9349961 133.855001,17.705 C133.004997,18.4750039 132.580001,19.5449931 132.580001,20.915 C132.580001,22.2850069 133.004997,23.3499962 133.855001,24.11 C134.705006,24.8700038 135.699996,25.25 136.840001,25.25 Z" id="CityRec" fill="#3C3D41"></path>
        <path d="M13.6101526,6.01403314 C5.96133365,5.6625363 -0.337680157,11.9612671 0.0140508166,19.6102545 C0.320456826,26.2787507 5.72106509,31.6793146 12.3898474,31.9859493 C20.0386664,32.3376774 26.3376802,26.0387153 25.9859492,18.3899592 C25.6795432,11.7212318 20.2789349,6.32066788 13.6101526,6.01403314 Z M5.02107189,16.1151734 C6.2786084,12.6422922 9.7251557,10.2678386 13.5881839,10.5381674 C16.1367882,10.7166908 18.3456864,12.0098292 19.7727291,13.9067558 C20.3924786,14.7311547 19.5521167,15.5835345 18.3782927,16.4669015 C17.255806,17.3116502 16.1402569,17.998919 16.1402569,17.998919 C15.4606137,18.3508783 14.6412956,18.2935288 14.0176148,17.8502266 L12.22566,16.5769755 C11.6019792,16.1339045 10.7826611,16.076555 10.1032491,16.4285144 L8.15080693,17.4397615 C7.47139496,17.7917208 6.65230811,17.7343714 6.02862735,17.2913004 L5.22595923,16.7212742 C5.02893438,16.582063 4.94013445,16.3383277 5.02107189,16.1151734 Z M12.4118161,27.461815 C9.86321184,27.2835229 7.65408232,25.9903845 6.22727094,24.0932266 C5.60752143,23.269059 6.44788327,22.4166792 7.62170735,21.5333122 C8.74419397,20.6883323 9.85974309,20.0012947 9.85974309,20.0012947 C10.5393863,19.6491041 11.3584732,19.7064536 11.9823852,20.1497559 L13.77434,21.4230069 C14.3980208,21.8663092 15.2173389,21.9236586 15.8967509,21.5716993 L17.8491931,20.5602209 C18.528605,20.2082616 19.3476919,20.2656111 19.9713727,20.7086821 L20.7738095,21.2789394 C20.7749658,21.2796332 20.776122,21.2803269 20.7772783,21.2812519 C20.9710656,21.4181507 21.0598655,21.6616548 20.9789281,21.884809 C19.7213916,25.3576902 16.2748443,27.7321438 12.4118161,27.461815 Z" id="logo" fill="url(#linearGradient-1)"></path>
    </g>
</svg>