<?xml version="1.0" encoding="UTF-8"?>
<svg width="20px" height="20px" viewBox="0 0 20 20" version="1.1" xmlns="http://www.w3.org/2000/svg" xmlns:xlink="http://www.w3.org/1999/xlink">
    <!-- Generator: Sketch 52.4 (67378) - http://www.bohemiancoding.com/sketch -->
    <title>icons/action</title>
    <desc>Created with Sketch.</desc>
    <g id="Symbols" stroke="none" stroke-width="1" fill="none" fill-rule="evenodd">
        <g id="banner" transform="translate(-17.000000, -13.000000)" fill="#FFFFFF">
            <g id="Group-4-Copy">
                <g id="icons/action" transform="translate(17.000000, 13.000000)">
                    <g id="cursor">
                        <path d="M19.8046958,16.9257479 L15.8370197,12.9583712 L18.66766,11.3235492 C18.888851,11.1958162 19.0175378,10.9530361 18.9991444,10.6983083 C18.980751,10.4435134 18.8184324,10.2216754 18.5811975,10.1271006 L5.95881207,5.09255216 C5.71137355,4.99374866 5.42882642,5.05194339 5.24039453,5.24028756 C5.05196264,5.42876597 4.99376156,5.71121511 5.09250873,5.95862659 L10.1268019,18.5811093 C10.2214542,18.8183182 10.4433164,18.9806862 10.6981392,18.9990776 C10.9529619,19.0176032 11.1958356,18.8888634 11.3235155,18.6676294 L12.958382,15.8372985 L16.9257895,19.8046751 C17.0507842,19.9297233 17.220487,20 17.3972384,20 C17.5741241,20 17.7436926,19.9297233 17.8686873,19.8046751 L19.8047629,17.8685427 C20.0650902,17.6081767 20.0650902,17.1861139 19.8046958,16.9257479 Z" id="Path"></path>
                        <path d="M2.96752278,2.00168606 C2.70083459,1.73520809 2.26859208,1.73513934 2.00176638,2.00168606 C1.73514694,2.26837028 1.73514694,2.70074384 2.00176638,2.96742806 L3.51904964,4.48468871 C3.65235937,4.61799644 3.82705766,4.68468468 4.00189347,4.68468468 C4.17659177,4.68468468 4.35135882,4.61799644 4.48466854,4.48468871 C4.75135673,4.21800449 4.75135673,3.78569967 4.48466854,3.51901545 L2.96752278,2.00168606 Z" id="Path"></path>
                        <path d="M3.42342342,6.57654483 C3.42342342,6.22835672 3.1253585,5.94594595 2.75765349,5.94594595 L0.665769928,5.94594595 C0.298131948,5.94594595 0,6.22829323 0,6.57654483 C0,6.92479643 0.298064922,7.20720721 0.665769928,7.20720721 L2.75765349,7.20720721 C3.1253585,7.20714372 3.42342342,6.92479643 3.42342342,6.57654483 Z" id="Path"></path>
                        <path d="M3.15877267,8.66834796 L1.64139172,10.1857099 C1.37479135,10.4523878 1.37479135,10.884751 1.64139172,11.1513601 C1.77476065,11.2846647 1.9495152,11.3513514 2.124201,11.3513514 C2.2988868,11.3513514 2.4737101,11.2846647 2.60701028,11.1513601 L4.12432249,9.63406693 C4.3909916,9.36738907 4.3909916,8.93502582 4.12432249,8.66834796 C3.85772212,8.40187635 3.42557928,8.4018076 3.15877267,8.66834796 Z" id="Path"></path>
                        <path d="M6.57654483,3.42342342 C6.92479643,3.42342342 7.20720721,3.12537017 7.20720721,2.75767956 L7.20720721,0.665676836 C7.20720721,0.298053251 6.92485992,0 6.57654483,0 C6.22835672,0 5.94594595,0.297986228 5.94594595,0.665676836 L5.94594595,2.75774659 C5.94594595,3.12537017 6.22829323,3.42342342 6.57654483,3.42342342 Z" id="Path"></path>
                        <path d="M9.15131622,4.32432432 C9.3261489,4.32432432 9.50084407,4.25763668 9.63415141,4.12433014 L11.1513388,2.60708306 C11.4180222,2.34040122 11.4180222,1.90803153 11.1513388,1.64134969 C10.8846554,1.37480536 10.4522831,1.37480536 10.1856684,1.64134969 L8.66848104,3.15866552 C8.40179761,3.42534735 8.40179761,3.85771705 8.66848104,4.12433014 C8.80185712,4.25763668 8.9765523,4.32432432 9.15131622,4.32432432 Z" id="Path"></path>
                    </g>
                </g>
            </g>
        </g>
    </g>
</svg>