<?xml version="1.0" encoding="UTF-8"?>
<svg width="11px" height="9px" viewBox="0 0 11 9" version="1.1" xmlns="http://www.w3.org/2000/svg" xmlns:xlink="http://www.w3.org/1999/xlink">
    <!-- Generator: Sketch 52.4 (67378) - http://www.bohemiancoding.com/sketch -->
    <title>icons/checkmark</title>
    <desc>Created with Sketch.</desc>
    <g id="Page-1" stroke="none" stroke-width="1" fill="none" fill-rule="evenodd">
        <g id="city-small" transform="translate(-250.000000, -21.000000)" fill="#FFFFFF">
            <g id="icons/checkmark" transform="translate(250.000000, 20.000000)">
                <path d="M10.9104446,2.29801336 L9.80210145,1.18967017 C9.68254123,1.07010994 9.48873426,1.07010994 9.36917403,1.18967017 L3.66564609,6.89289194 L1.63097906,4.85837798 C1.51141883,4.73881776 1.31761186,4.73881776 1.19805163,4.85837798 L0.0897084406,5.96672117 C0.0323011621,6.02412845 0,6.10204927 0,6.18318489 C0,6.26432051 0.0323011621,6.34224132 0.0897084406,6.3996486 L3.44918238,9.75881637 C3.50903904,9.81867302 3.58726602,9.84852481 3.66564609,9.84852481 C3.74417925,9.84852481 3.82210006,9.81867302 3.8821098,9.75881637 L10.9102916,2.73094078 C10.9676988,2.6735335 11,2.59561269 11,2.51447707 C11,2.43334145 10.9678519,2.35542064 10.9104446,2.29801336 Z" id="Path"></path>
            </g>
        </g>
    </g>
</svg>